<svg width="306" height="229" viewBox="0 0 306 229" fill="none" xmlns="http://www.w3.org/2000/svg">
<path d="M290.898 92.6946V96.7297L156.437 19.6295C154.255 18.5389 151.637 7.63332 149.456 19.6295L14.9948 96.7297V92.6946H0.0545197V152.346C0.0545197 155.182 1.47229 157.908 4.41662 159.436L139.751 225.957C148.039 229.991 157.854 229.991 166.142 225.957L301.475 159.436C304.42 158.017 305.838 155.182 305.838 152.346V92.6946H290.898Z" fill="#322337"/>
<path d="M4.41663 86.0424L141.496 18.7571C148.693 15.1584 157.199 15.1584 164.397 18.7571L301.475 86.0424C307.365 88.8778 307.365 97.2749 301.475 100.11L166.142 166.632C157.854 170.667 148.039 170.667 139.751 166.632L4.41663 100.11C-1.47221 97.2749 -1.47221 88.8778 4.41663 86.0424ZM97.3293 55.8349C95.1483 56.9255 95.1483 59.9789 97.3293 61.0695L147.603 85.8245C150.656 87.3512 154.364 87.3512 157.418 85.8245L207.69 61.0695C209.871 59.9789 209.871 56.9255 207.69 55.8349L156.762 30.862C154.036 29.4442 150.874 29.4442 148.257 30.7529L97.3293 55.8349ZM218.378 67.2866L98.8561 125.739C96.675 126.829 96.675 129.882 98.8561 130.973L149.129 155.729C152.183 157.255 155.89 157.255 158.943 155.729L277.811 97.6032C279.993 96.5127 279.993 93.4592 277.811 92.3687L226.884 67.2866C224.158 65.978 220.996 65.978 218.378 67.2866ZM28.0809 91.3861C25.8999 92.4766 25.8999 95.5301 28.0809 96.6206L78.3542 121.375C81.4077 122.903 85.1155 122.903 88.1689 121.375L138.442 96.6206C140.623 95.5301 140.623 92.4766 138.442 91.3861L87.5146 66.304C84.7882 64.9953 81.6258 64.9953 78.8994 66.304L28.0809 91.3861Z" fill="#73527A"/>
<path d="M210.852 41.0037C210.852 40.5675 210.852 40.0224 210.744 39.5862C209.871 28.1355 200.711 18.9751 189.369 18.2119H188.933C181.845 17.8846 175.302 14.286 170.94 8.7242C166.687 3.38072 160.252 0 152.947 0C145.64 0 139.097 3.38072 134.953 8.7242C130.481 14.286 124.047 17.8846 116.959 18.2119H116.523C105.072 18.8662 95.9117 28.1355 95.0393 39.477C95.0393 39.6951 95.012 39.9405 94.9847 40.1858C94.9575 40.4312 94.9302 40.6767 94.9302 40.8948C94.9302 46.0944 96.1559 50.9995 98.3315 55.3409C98.3676 55.4128 98.4036 55.4837 98.4396 55.5547C98.855 56.3692 99.3042 57.162 99.7852 57.9341C101.556 60.7782 103.757 63.3247 106.295 65.4838L120.487 72.4729C122.657 72.9321 124.905 73.1743 127.21 73.1743H178.464C180.348 73.1852 182.195 73.0368 183.988 72.7403L200.628 64.5471C202.716 62.5983 204.543 60.3747 206.054 57.9341C206.51 57.1958 206.937 56.4369 207.336 55.6604C209.585 51.2601 210.852 46.2764 210.852 41.0037Z" fill="#1B9548"/>
<path d="M167.074 36.2022C164.728 36.8205 162.516 37.7563 160.471 38.9317C155.89 41.6581 150.111 41.6581 145.531 38.9317C145.258 38.7683 144.982 38.6101 144.703 38.4564C142.566 37.2851 140.242 36.4182 137.798 35.9045C135.446 35.4094 132.987 35.2415 130.481 35.4422C121.035 36.0876 112.903 41.9339 108.964 50.1043C108.911 50.2154 108.857 50.3267 108.806 50.439C107.72 52.7749 106.975 55.2952 106.637 57.9342C106.574 58.4305 106.524 58.9298 106.49 59.4336C106.334 61.5929 106.444 63.7008 106.791 65.7282L147.603 85.8245C150.656 87.3512 154.364 87.3512 157.418 85.8245L199.294 65.2037C199.574 63.3377 199.654 61.4076 199.511 59.4336C199.477 58.9298 199.428 58.4305 199.364 57.9342C199.042 55.4161 198.349 53.0061 197.343 50.7608C193.527 42.2482 185.217 36.1052 175.519 35.4422C172.707 35.2217 170.004 35.4759 167.456 36.1052C167.327 36.1367 167.202 36.1684 167.074 36.2022Z" fill="#27EA6F"/>
<path d="M71.3019 77.5243C71.6592 84.5069 74.6629 90.7884 79.33 95.3861C84.2119 100.196 90.9138 103.164 98.3109 103.164C103.723 103.164 108.564 105.789 111.62 109.827L88.1689 121.375C85.1156 122.903 81.4079 122.903 78.3544 121.375L44.9984 104.951C43.3437 101.91 41.9423 98.7122 40.8222 95.3861C39.8267 92.4297 39.0535 89.3718 38.5232 86.2322C37.9673 82.9422 37.6779 79.5636 37.6779 76.1187C37.6779 74.9192 37.7869 73.8286 38.005 72.7381C28.5175 67.0674 22.0833 56.7073 22.0833 44.9296V35.006C22.0833 27.6994 27.9721 21.5924 35.3877 21.5924C42.8033 21.5924 48.8013 27.5904 48.8013 35.006V44.9296C48.8013 47.9831 51.3094 50.4914 54.3628 50.4914C57.4163 50.4914 59.9246 47.9831 59.9246 44.9296V35.006C59.9246 27.6994 66.0315 21.5924 73.4471 21.5924C80.8627 21.5924 86.8605 27.5904 86.8605 35.006V44.9296C86.8605 53.186 83.6986 60.7456 78.539 66.4817C78.4087 66.6267 78.2771 66.7707 78.1443 66.9135C77.8004 67.2821 77.4481 67.6432 77.0877 67.9954C75.2368 69.8077 73.1725 71.4032 70.9388 72.7381C70.9661 72.8744 70.9918 73.0118 71.0157 73.1513C71.1826 74.1262 71.2661 75.1644 71.2661 76.1187C71.2661 76.5898 71.2782 77.0588 71.3019 77.5243Z" fill="#FF7E14"/>
<path d="M277.812 92.3686L251.53 79.5004C193.623 63.9058 141.387 90.6236 111.288 137.189L149.129 155.837C152.183 157.363 155.89 157.363 158.943 155.837L277.812 97.7121C279.993 96.5126 279.993 93.4591 277.812 92.3686Z" fill="#F4F4F4"/>
<path d="M204.201 83.207L200.275 88.2234C199.402 89.3139 199.621 90.9498 200.711 91.8222C201.802 92.6946 203.437 92.4765 204.309 91.386L208.235 86.3696C209.108 85.279 208.89 83.6432 207.799 82.7707C206.709 81.8983 205.073 82.1164 204.201 83.207Z" fill="#D3D3D3"/>
<path d="M232.773 93.3489L226.556 91.9313C225.247 91.6041 224.375 90.1865 224.594 88.8778C224.922 87.4601 226.23 86.5876 227.647 86.9147L233.863 88.3325C235.28 88.6597 236.153 89.9682 235.827 91.386C235.499 92.8035 234.191 93.676 232.773 93.3489Z" fill="#D3D3D3"/>
<path d="M194.168 103.055L200.494 104.036C201.911 104.254 202.892 105.563 202.675 106.98C202.456 108.397 201.147 109.38 199.73 109.161L193.404 108.18C191.987 107.963 191.006 106.654 191.223 105.236C191.442 103.818 192.751 102.837 194.168 103.055Z" fill="#D3D3D3"/>
<path d="M190.897 121.266L188.28 127.046C187.733 128.354 188.28 129.882 189.589 130.427C190.897 130.972 192.423 130.427 192.968 129.118L195.585 123.339C196.132 122.03 195.585 120.503 194.276 119.958C192.968 119.413 191.551 119.958 190.897 121.266Z" fill="#D3D3D3"/>
<path d="M168.759 138.715L162.543 137.298C161.124 136.97 160.252 135.553 160.58 134.244C160.907 132.825 162.216 131.953 163.633 132.28L169.849 133.699C171.268 134.025 172.14 135.334 171.812 136.753C171.485 138.17 170.176 139.042 168.759 138.715Z" fill="#D3D3D3"/>
<path d="M230.918 109.706L226.447 114.178C225.466 115.159 223.83 115.159 222.849 114.178C221.868 113.196 221.868 111.561 222.849 110.578L227.32 106.108C228.301 105.127 229.937 105.127 230.918 106.108C231.901 107.089 231.901 108.725 230.918 109.706Z" fill="#D3D3D3"/>
<path d="M175.411 99.2378L179.881 94.7667C180.864 93.7852 180.864 92.1495 179.881 91.1679C178.9 90.1865 177.264 90.1865 176.283 91.1679L171.813 95.6392C170.831 96.6205 170.831 98.2564 171.813 99.2378C172.794 100.219 174.43 100.219 175.411 99.2378Z" fill="#D3D3D3"/>
<path d="M257.418 92.8047L262.544 96.6216C263.634 97.494 263.853 99.1297 262.872 100.329C261.999 101.42 260.363 101.638 259.272 100.766L254.256 96.8397C253.165 95.9673 252.948 94.3314 253.82 93.2409C254.692 92.1504 256.329 91.9323 257.418 92.8047Z" fill="#D3D3D3"/>
<path d="M157.199 117.122L161.997 112.978C163.088 112.106 163.197 110.47 162.324 109.38C161.452 108.289 159.816 108.18 158.726 109.053L153.928 113.196C152.836 114.068 152.728 115.704 153.6 116.796C154.473 117.885 156.109 117.994 157.199 117.122Z" fill="#D3D3D3"/>
<path d="M134.843 135.878L132.444 129.991C131.899 128.791 132.444 127.265 133.862 126.609C135.171 126.065 136.697 126.718 137.243 128.027L139.642 133.916C140.187 135.225 139.533 136.751 138.224 137.298C136.915 137.842 135.389 137.187 134.843 135.878Z" fill="#D3D3D3"/>
</svg>
