<svg width="362" height="362" viewBox="0 0 362 362" fill="none" xmlns="http://www.w3.org/2000/svg">
<g clip-path="url(#clip0_148_289)">
<mask id="mask0_148_289" style="mask-type:luminance" maskUnits="userSpaceOnUse" x="0" y="0" width="362" height="362">
<path d="M362 0H0V362H362V0Z" fill="white"/>
</mask>
<g mask="url(#mask0_148_289)">
<path d="M362 0H0V362H362V0Z" fill="#22C55E"/>
<path d="M319.224 168.398V172.433L184.763 95.3327C182.582 94.2422 179.964 83.3366 177.783 95.3327L43.3213 172.433V168.398H28.381V228.049C28.381 230.885 29.7988 233.611 32.7431 235.139L168.077 301.66C176.365 305.695 186.18 305.695 194.468 301.66L329.802 235.139C332.747 233.72 334.164 230.885 334.164 228.049V168.398H319.224Z" fill="#121C40"/>
<path d="M32.7431 161.746L169.822 94.4603C177.02 90.8616 185.525 90.8616 192.723 94.4603L329.802 161.746C335.692 164.581 335.692 172.978 329.802 175.813L194.468 242.335C186.18 246.37 176.365 246.37 168.077 242.335L32.7431 175.813C26.8542 172.978 26.8542 164.581 32.7431 161.746ZM125.656 131.538C123.475 132.629 123.475 135.682 125.656 136.773L175.929 161.528C178.983 163.054 182.691 163.054 185.744 161.528L236.017 136.773C238.198 135.682 238.198 132.629 236.017 131.538L185.089 106.565C182.363 105.147 179.201 105.147 176.583 106.456L125.656 131.538ZM246.705 142.99L127.183 201.442C125.001 202.532 125.001 205.585 127.183 206.677L177.456 231.432C180.509 232.958 184.216 232.958 187.27 231.432L306.138 173.306C308.319 172.216 308.319 169.162 306.138 168.072L255.21 142.99C252.484 141.681 249.322 141.681 246.705 142.99ZM56.4074 167.089C54.2263 168.18 54.2263 171.233 56.4074 172.324L106.681 197.078C109.734 198.606 113.442 198.606 116.495 197.078L166.769 172.324C168.95 171.233 168.95 168.18 166.769 167.089L115.841 142.007C113.115 140.699 109.952 140.699 107.226 142.007L56.4074 167.089Z" fill="#3A90AB"/>
<path d="M239.179 116.707C239.179 116.271 239.179 115.726 239.07 115.289C238.198 103.839 229.037 94.6784 217.696 93.9151H217.26C210.172 93.5879 203.629 89.9892 199.267 84.4275C195.013 79.084 188.578 75.7032 181.273 75.7032C173.966 75.7032 167.423 79.084 163.279 84.4275C158.808 89.9892 152.374 93.5879 145.285 93.9151H144.849C133.399 94.5694 124.238 103.839 123.366 115.18C123.366 115.398 123.338 115.644 123.311 115.889C123.284 116.134 123.257 116.38 123.257 116.598C123.257 121.798 124.482 126.703 126.658 131.044C126.694 131.116 126.73 131.187 126.766 131.258C127.181 132.072 127.631 132.865 128.112 133.637C129.883 136.481 132.083 139.028 134.621 141.187L148.813 148.176C150.983 148.635 153.232 148.878 155.536 148.878H206.791C208.675 148.888 210.521 148.74 212.315 148.444L228.954 140.25C231.043 138.302 232.869 136.078 234.381 133.637C234.837 132.899 235.264 132.14 235.662 131.364C237.912 126.963 239.179 121.98 239.179 116.707Z" fill="#117C32"/>
<path d="M195.4 111.905C193.055 112.524 190.843 113.459 188.797 114.635C184.216 117.361 178.437 117.361 173.857 114.635C173.584 114.471 173.309 114.313 173.029 114.16C170.893 112.988 168.568 112.121 166.124 111.608C163.773 111.113 161.314 110.945 158.808 111.145C149.362 111.791 141.23 117.637 137.291 125.807C137.237 125.919 137.184 126.03 137.132 126.142C136.046 128.478 135.301 130.998 134.964 133.637C134.9 134.134 134.85 134.633 134.816 135.137C134.66 137.296 134.77 139.404 135.117 141.431L175.929 161.528C178.983 163.054 182.691 163.054 185.744 161.528L227.62 140.907C227.901 139.041 227.98 137.111 227.837 135.137C227.803 134.633 227.754 134.134 227.691 133.637C227.369 131.119 226.675 128.709 225.669 126.464C221.853 117.951 213.544 111.808 203.846 111.145C201.033 110.925 198.331 111.179 195.782 111.808C195.654 111.84 195.529 111.872 195.4 111.905Z" fill="#5EC169"/>
<path d="M99.6284 153.228C99.9857 160.21 102.989 166.492 107.656 171.089C112.538 175.9 119.24 178.867 126.637 178.867C132.05 178.867 136.89 181.492 139.946 185.53L116.495 197.078C113.442 198.606 109.734 198.606 106.681 197.078L73.3249 180.654C71.6702 177.613 70.2687 174.415 69.1487 171.089C68.1532 168.133 67.38 165.075 66.8496 161.935C66.2938 158.645 66.0044 155.267 66.0044 151.822C66.0044 150.622 66.1133 149.532 66.3314 148.441C56.8439 142.771 50.4098 132.411 50.4098 120.633V110.709C50.4098 103.403 56.2986 97.2957 63.7142 97.2957C71.1297 97.2957 77.1277 103.294 77.1277 110.709V120.633C77.1277 123.686 79.6358 126.195 82.6893 126.195C85.7428 126.195 88.2511 123.686 88.2511 120.633V110.709C88.2511 103.403 94.358 97.2957 101.774 97.2957C109.189 97.2957 115.187 103.294 115.187 110.709V120.633C115.187 128.889 112.025 136.449 106.865 142.185C106.735 142.33 106.604 142.474 106.471 142.617C106.127 142.985 105.775 143.346 105.414 143.699C103.563 145.511 101.499 147.106 99.2653 148.441C99.2926 148.578 99.3183 148.715 99.3422 148.855C99.5091 149.829 99.5925 150.868 99.5925 151.822C99.5925 152.293 99.6047 152.762 99.6284 153.228Z" fill="url(#paint0_linear_148_289)"/>
<path d="M306.138 168.072L279.857 155.204C221.949 139.609 169.713 166.327 139.615 212.892L177.456 231.541C180.509 233.066 184.216 233.066 187.27 231.541L306.138 173.415C308.319 172.216 308.319 169.162 306.138 168.072Z" fill="#F4F4F4"/>
<path d="M232.527 158.91L228.601 163.927C227.729 165.017 227.948 166.653 229.037 167.525C230.129 168.398 231.763 168.18 232.636 167.089L236.562 162.073C237.434 160.982 237.217 159.346 236.125 158.474C235.036 157.602 233.4 157.82 232.527 158.91Z" fill="#A3836E"/>
<path d="M261.1 169.052L254.882 167.635C253.574 167.307 252.701 165.89 252.92 164.581C253.248 163.163 254.557 162.291 255.974 162.618L262.189 164.036C263.607 164.363 264.479 165.671 264.153 167.089C263.826 168.507 262.517 169.379 261.1 169.052Z" fill="#A3836E"/>
<path d="M222.494 178.758L228.82 179.739C230.237 179.957 231.218 181.266 231.001 182.683C230.782 184.101 229.474 185.083 228.056 184.864L221.73 183.883C220.313 183.666 219.332 182.357 219.549 180.939C219.768 179.521 221.077 178.54 222.494 178.758Z" fill="#A3836E"/>
<path d="M219.224 196.97L216.606 202.749C216.06 204.058 216.606 205.585 217.915 206.13C219.224 206.675 220.749 206.13 221.294 204.821L223.911 199.042C224.458 197.733 223.911 196.206 222.603 195.661C221.294 195.116 219.877 195.661 219.224 196.97Z" fill="#A3836E"/>
<path d="M197.085 214.418L190.87 213.001C189.451 212.673 188.578 211.256 188.906 209.947C189.234 208.528 190.542 207.656 191.96 207.983L198.175 209.403C199.594 209.728 200.467 211.037 200.139 212.456C199.811 213.873 198.503 214.746 197.085 214.418Z" fill="#A3836E"/>
<path d="M259.245 185.409L254.774 189.882C253.793 190.863 252.157 190.863 251.176 189.882C250.195 188.899 250.195 187.264 251.176 186.282L255.646 181.811C256.627 180.83 258.263 180.83 259.245 181.811C260.227 182.792 260.227 184.428 259.245 185.409Z" fill="#A3836E"/>
<path d="M203.737 174.941L208.208 170.47C209.191 169.488 209.191 167.853 208.208 166.871C207.227 165.89 205.591 165.89 204.61 166.871L200.139 171.342C199.158 172.324 199.158 173.96 200.139 174.941C201.12 175.923 202.756 175.923 203.737 174.941Z" fill="#A3836E"/>
<path d="M285.745 168.508L290.871 172.325C291.96 173.197 292.179 174.833 291.198 176.033C290.326 177.123 288.69 177.341 287.598 176.469L282.583 172.543C281.491 171.671 281.274 170.035 282.146 168.944C283.019 167.854 284.655 167.636 285.745 168.508Z" fill="#A3836E"/>
<path d="M185.525 192.825L190.323 188.682C191.415 187.809 191.523 186.173 190.651 185.083C189.778 183.992 188.142 183.883 187.053 184.756L182.254 188.899C181.163 189.771 181.054 191.407 181.927 192.499C182.799 193.589 184.435 193.697 185.525 192.825Z" fill="#A3836E"/>
<path d="M163.17 211.582L160.771 205.694C160.226 204.494 160.771 202.968 162.188 202.313C163.497 201.768 165.024 202.421 165.569 203.73L167.968 209.62C168.514 210.928 167.859 212.454 166.551 213.001C165.242 213.546 163.715 212.89 163.17 211.582Z" fill="#A3836E"/>
</g>
</g>
<defs>
<linearGradient id="paint0_linear_148_289" x1="140" y1="187.5" x2="53" y2="99" gradientUnits="userSpaceOnUse">
<stop stop-color="#B1A837"/>
<stop offset="0.304119" stop-color="#FF7E14"/>
<stop offset="1" stop-color="#EE7070"/>
</linearGradient>
<clipPath id="clip0_148_289">
<rect width="362" height="362" fill="white"/>
</clipPath>
</defs>
</svg>
